<svg width="24" height="25" viewBox="0 0 24 25" fill="none" xmlns="http://www.w3.org/2000/svg">
<path d="M12.0258 23.9483C18.6389 23.9483 23.9999 18.5873 23.9999 11.9741C23.9999 5.36101 18.6389 0 12.0258 0C5.41261 0 0.0516052 5.36101 0.0516052 11.9741C0.0516052 18.5873 5.41261 23.9483 12.0258 23.9483Z" fill="#E94335"/>
<path d="M12.0258 23.9483C18.6389 23.9483 23.9999 18.5873 23.9999 11.9741C23.9999 5.36101 18.6389 0 12.0258 0C5.41261 0 0.0516052 5.36101 0.0516052 11.9741C0.0516052 18.5873 5.41261 23.9483 12.0258 23.9483Z" fill="#E94335"/>
<mask id="mask0" mask-type="alpha" maskUnits="userSpaceOnUse" x="0" y="0" width="24" height="25">
<path fill-rule="evenodd" clip-rule="evenodd" d="M11.9741 0.239536C18.5891 0.239536 23.9483 5.59878 23.9483 12.2137C23.9483 18.8286 18.5891 24.1878 11.9741 24.1878C5.35924 24.1878 0 18.8286 0 12.2137C0 5.59878 5.35924 0.239536 11.9741 0.239536Z" fill="white"/>
</mask>
<g mask="url(#mask0)">
<path fill-rule="evenodd" clip-rule="evenodd" d="M11.5663 14.4596C10.2912 14.4596 9.30737 13.4629 9.30737 12.1878C9.30737 10.9386 10.2847 9.9224 11.5663 9.9224C12.7961 9.9224 13.7993 10.9386 13.7993 12.1878C13.7993 13.4629 12.7961 14.4596 11.5663 14.4596ZM15.0097 6.62142H14.6342L14.4207 7.61818C13.8317 6.44019 12.0776 6.32368 11.1326 6.32368C8.18763 6.32368 5.61804 9.15864 5.61804 13.0551C5.61804 16.1878 7.4886 18.1554 9.83812 18.1554C11.152 18.1554 12.2653 17.8512 13.1844 16.7574L12.9449 17.8577H13.4821H16.6472L18.3365 6.62789H15.0097V6.62142Z" fill="white"/>
</g>
</svg>
