<svg width="24" height="25" viewBox="0 0 24 25" fill="none"
    xmlns="http://www.w3.org/2000/svg">
    <path d="M12.0257 23.9483C18.6388 23.9483 23.9998 18.5873 23.9998 11.9741C23.9998 5.36101 18.6388 0 12.0257 0C5.41252 0 0.0515137 5.36101 0.0515137 11.9741C0.0515137 18.5873 5.41252 23.9483 12.0257 23.9483Z" fill="#75767A"/>
    <path d="M12.0257 23.9483C18.6388 23.9483 23.9998 18.5873 23.9998 11.9741C23.9998 5.36101 18.6388 0 12.0257 0C5.41252 0 0.0515137 5.36101 0.0515137 11.9741C0.0515137 18.5873 5.41252 23.9483 12.0257 23.9483Z" fill="#75767A"/>
    <mask id="mask0" mask-type="alpha" maskUnits="userSpaceOnUse" x="0" y="0" width="24" height="25">
        <path fill-rule="evenodd" clip-rule="evenodd" d="M11.9741 0.239536C18.5891 0.239536 23.9483 5.59878 23.9483 12.2137C23.9483 18.8286 18.5891 24.1878 11.9741 24.1878C5.35924 24.1878 0 18.8286 0 12.2137C0 5.59878 5.35924 0.239536 11.9741 0.239536Z" fill="white"/>
    </mask>
    <g mask="url(#mask0)">
        <path fill-rule="evenodd" clip-rule="evenodd" d="M11.5664 14.4596C10.2913 14.4596 9.30749 13.4629 9.30749 12.1878C9.30749 10.9386 10.2848 9.9224 11.5664 9.9224C12.7962 9.9224 13.7994 10.9386 13.7994 12.1878C13.7994 13.4629 12.7962 14.4596 11.5664 14.4596ZM15.0098 6.62142H14.6344L14.4208 7.61818C13.8318 6.44019 12.0777 6.32368 11.1327 6.32368C8.18775 6.32368 5.61816 9.15864 5.61816 13.0551C5.61816 16.1878 7.48872 18.1554 9.83824 18.1554C11.1522 18.1554 12.2654 17.8512 13.1845 16.7574L12.945 17.8577H13.4823H16.6473L18.3366 6.62789H15.0098V6.62142Z" fill="white"/>
    </g>
</svg>
